<svg id="Layer_1" data-name="Layer 1" xmlns="http://www.w3.org/2000/svg" viewBox="0 0 336.2 340.16"><defs><style>.cls-1{fill:#c00000;}.cls-2{fill:#fff;}.cls-3{fill:#c10000;}.cls-4{fill:#c10100;}.cls-5{fill:#a70800;}</style></defs><title>HotCubeWhite</title><path class="cls-1" d="M0,62.49v62.6l20.27-20.27L40.54,84.64l.2-21.35L41,42l21.36-.3,21.45-.2,19.58-20.37C114.31,10,123.31.69,123.5.4S96,0,62,0H0Z"/><path class="cls-2" d="M211.61.3c0,.1,9,9.49,20.07,20.76l20,20.57,21.55-.1h21.46v43l20.77,20.77,20.76,20.77V0H273.91C239.69,0,211.61.1,211.61.3Z"/><path class="cls-2" d="M62.3,77.82V92.36l4.94-4.85c4.55-4.45,4.94-5.24,4.94-9.59V73.17h4.75c4.95,0,5.34-.29,11.47-7.71l1.88-2.17h-28Z"/><path class="cls-3" d="M246.22,64.08c0,.39,1.88,2.67,4.25,4.94,3.76,3.66,4.75,4.15,8.9,4.15,3,0,4.65.4,4.75,1.19s.1,2.87.1,4.94c0,3,.89,4.36,4.84,8.31l4.85,4.75V63.29H260.06C252.45,63.29,246.22,63.68,246.22,64.08Z"/><path class="cls-2" d="M80.1,171.56v88.5h177v-177H80.1ZM248.2,122v30.06l-3.46,1.19c-7.42,2.47-13.35,10.28-13.35,17.8s5.93,15.32,13.35,17.8l3.46,1.18v61.11H89V92H248.2Z"/><path class="cls-2" d="M220.51,107.29v10.38h20.76V96.91H220.51Z"/><path class="cls-2" d="M194.11,142.29c-10.19,3.46-16,10.19-18.79,21.46-3.36,13.55,3,27.69,15.13,33.62,6.23,3.07,16.41,4.15,22.74,2.47,4.55-1.18,13.25-6.62,13.25-8.3,0-.6-1.88-3-4.05-5.34L218.23,182l-3.46,2.67c-3,2.18-4.54,2.67-9.49,2.67-4.45,0-6.72-.49-8.7-2-6.92-5-8.9-17.51-4.05-25a15.3,15.3,0,0,1,21.35-4.75l3.46,2.38,4.65-4.75,4.55-4.65-3.06-2.57C217.05,140.61,203.8,138.93,194.11,142.29Z"/><path class="cls-2" d="M115.69,170.57v28.18h13.85V176h21.75v22.74h13.84V142.39H151.29v21.76H129.54V142.39H115.69Z"/><path class="cls-2" d="M.17,278.16v62h124.1L103.5,319.39,82.74,298.63h-42v-42L20.44,236.33.17,216.06Z"/><path class="cls-4" d="M315.14,236.13,294.67,256.6v42h-42l-20.77,20.76-20.76,20.77H336.2v-62.3c0-34.31-.1-62.3-.29-62.3S326.41,224.76,315.14,236.13Z"/><path class="cls-5" d="M62.3,263.33v14.53H90.08l-1.88-2.77c-3.46-4.84-6-6.42-10.38-6.62-2.27-.2-4.45-.3-4.84-.4s-.8-2.27-.8-4.84c0-4.35-.39-5.15-4.94-9.6l-4.94-4.84Z"/><path class="cls-2" d="M268.47,254.13c-2.77,2.77-4.85,5.24-4.65,5.44a26.36,26.36,0,0,1,.2,3.95c0,3.37-.1,3.46-4.06,3.46-3.46,0-4.64.7-9.09,4.95l-5.15,4.94h28.19V263c0-7.62-.1-13.84-.3-13.84S271.14,251.46,268.47,254.13Z"/></svg>